<?xml version="1.0" standalone="no"?>
<!DOCTYPE svg PUBLIC "-//W3C//DTD SVG 20010904//EN"
 "http://www.w3.org/TR/2001/REC-SVG-20010904/DTD/svg10.dtd">
<svg version="1.0" xmlns="http://www.w3.org/2000/svg"
 width="260.000000pt" height="260.000000pt" viewBox="0 0 260.000000 260.000000"
 preserveAspectRatio="xMidYMid meet">
<metadata>
Created by potrace 1.14, written by Peter Selinger 2001-2017
</metadata>
<g transform="translate(0.000000,260.000000) scale(0.100000,-0.100000)"
fill="#000000" stroke="none">
<path d="M818 2573 c-132 -26 -244 -81 -312 -152 -17 -17 -39 -31 -51 -31 -33
0 -130 -36 -169 -62 -84 -57 -109 -125 -109 -296 0 -67 2 -124 4 -126 2 -2 14
-6 26 -10 19 -6 22 -1 36 60 21 89 32 97 35 24 3 -90 8 -102 41 -93 13 3 16
19 17 81 0 43 5 85 10 94 6 11 9 -22 9 -95 0 -97 4 -119 24 -162 46 -97 40
-111 -110 -247 -54 -49 -63 -71 -40 -100 11 -13 37 -32 59 -42 41 -19 56 -43
41 -67 -15 -23 -10 -55 11 -74 17 -15 17 -19 5 -32 -20 -19 -19 -39 4 -77 11
-18 21 -59 24 -100 4 -38 12 -75 20 -83 23 -23 70 -31 168 -27 124 4 162 -2
193 -33 34 -34 47 -81 52 -185 4 -105 -10 -160 -57 -218 -40 -50 -156 -139
-269 -207 -51 -31 -78 -53 -75 -61 3 -8 5 -20 5 -27 0 -25 75 -89 142 -122
202 -98 520 -115 768 -41 89 27 111 36 219 91 194 98 321 214 334 305 5 28 2
33 -21 38 -15 3 -36 9 -47 12 -11 3 -25 7 -32 8 -7 1 -43 12 -80 24 -189 62
-334 157 -402 265 -39 61 -53 111 -52 184 1 90 3 94 52 107 251 66 459 287
538 571 24 88 26 230 4 327 -14 63 -14 69 0 78 23 13 39 77 28 116 l-10 32 31
-16 c50 -26 118 -101 145 -161 28 -60 38 -171 22 -241 -4 -20 -10 -48 -12 -62
-3 -14 -10 -43 -15 -65 -6 -22 -13 -51 -16 -65 -2 -14 -11 -54 -20 -90 -28
-122 -30 -135 -30 -265 -1 -110 3 -157 18 -230 10 -46 38 -125 48 -131 8 -5 9
-1 4 12 -4 10 -9 46 -12 79 l-4 60 25 -70 c51 -141 98 -204 170 -228 48 -17
51 -16 35 14 -13 23 -3 25 45 5 35 -15 60 -19 110 -17 l30 1 -36 33 c-86 78
-138 236 -134 408 3 118 20 201 75 374 71 226 84 295 84 445 -1 202 -65 340
-200 426 -115 73 -260 78 -427 14 -55 -21 -60 -21 -92 -6 -45 22 -61 20 -81
-7 l-18 -23 -50 33 c-27 19 -72 44 -100 57 -50 22 -196 64 -226 64 -8 0 -53 3
-100 7 -147 12 -236 12 -302 -2z"/>
</g>
</svg>
